<svg fill="#000000" xmlns="http://www.w3.org/2000/svg" viewBox="0 0 50 50" width="100px" height="100px"><path d="M 30 1 C 24.488281 1 20 5.488281 20 11 C 20 14.414063 21.730469 17.429688 24.355469 19.234375 L 16.503906 25.121094 C 16.503906 25.121094 16.5 25.121094 16.5 25.125 C 16.28125 25.246094 16.113281 25.449219 16.035156 25.6875 L 12.1875 33.390625 C 12.003906 33.625 11.933594 33.925781 11.996094 34.214844 C 12.054688 34.503906 12.242188 34.753906 12.503906 34.890625 L 19 40.460938 L 19 43.03125 C 16.148438 43.164063 14.046875 43.855469 12.628906 44.585938 C 11.835938 44.992188 11.257813 45.40625 10.859375 45.734375 C 10.664063 45.902344 10.511719 46.046875 10.402344 46.160156 C 10.34375 46.21875 10.300781 46.269531 10.253906 46.324219 C 10.234375 46.351563 10.210938 46.375 10.183594 46.421875 C 10.167969 46.445313 10.148438 46.46875 10.121094 46.527344 C 10.105469 46.554688 10.085938 46.585938 10.0625 46.648438 C 10.054688 46.679688 10.027344 46.769531 10.027344 46.769531 C 10.027344 46.773438 10 47 10 47 L 10 48 C 10 48.550781 10.449219 49 11 49 L 29 49 C 29.550781 49 30 48.550781 30 48 L 30 47 C 30 46.761719 29.914063 46.53125 29.761719 46.347656 C 29.761719 46.347656 28.953125 45.433594 27.375 44.613281 C 25.957031 43.878906 23.855469 43.167969 21 43.03125 L 21 40.535156 L 26.554688 36.832031 C 26.832031 36.648438 27 36.335938 27 36 C 27 35.664063 26.832031 35.351563 26.554688 35.167969 L 21.570313 31.84375 L 24.558594 28.859375 C 24.6875 28.777344 24.796875 28.667969 24.875 28.535156 L 27.707031 25.707031 C 27.894531 25.519531 28 25.265625 28 25 L 28 20.796875 C 28.648438 20.929688 29.316406 21 30 21 C 35.511719 21 40 16.511719 40 11 C 40 5.488281 35.511719 1 30 1 Z M 30 3 C 34.429688 3 38 6.570313 38 11 C 38 15.429688 34.429688 19 30 19 C 25.570313 19 22 15.429688 22 11 C 22 6.570313 25.570313 3 30 3 Z M 30 7 C 27.800781 7 26 8.800781 26 11 C 26 13.199219 27.800781 15 30 15 C 32.199219 15 34 13.199219 34 11 C 34 8.800781 32.199219 7 30 7 Z M 30 9 C 31.117188 9 32 9.882813 32 11 C 32 12.117188 31.117188 13 30 13 C 28.882813 13 28 12.117188 28 11 C 28 9.882813 28.882813 9 30 9 Z M 26 20.15625 L 26 24.585938 L 23.707031 26.875 L 19.210938 25.59375 L 25.597656 20.800781 C 25.8125 20.648438 25.953125 20.414063 26 20.15625 Z M 17.523438 27.1875 L 22.09375 28.496094 L 19.476563 31.109375 L 14.910156 32.414063 Z M 19.828125 33.089844 L 24.199219 36 L 20.078125 38.75 L 15.0625 34.449219 Z M 19.863281 45.003906 C 19.957031 45.015625 20.046875 45.015625 20.136719 45.003906 C 23.121094 45.023438 25.164063 45.71875 26.453125 46.386719 C 27.089844 46.714844 27.035156 46.773438 27.320313 47 L 12.5625 47 C 12.835938 46.800781 13.085938 46.601563 13.542969 46.363281 C 14.832031 45.703125 16.875 45.023438 19.863281 45.003906 Z"/></svg>