<svg fill="#000000" xmlns="http://www.w3.org/2000/svg" viewBox="0 0 50 50" width="100px" height="100px"><path d="M 17.3125 2.03125 C 13.453125 2.230469 10.4375 4.03125 10.4375 4.03125 L 10.34375 4.0625 L 10.28125 4.125 C 10.28125 4.125 4.175781 9.488281 5.6875 16.65625 L 5.71875 16.84375 L 5.84375 17.03125 C 6.261719 17.605469 6.722656 18.105469 7.3125 18.5 C 6.621094 18.472656 5.945313 18.597656 5.28125 18.8125 L 5.0625 18.875 L 4.90625 19.03125 C -0.527344 23.941406 1.28125 31.84375 1.28125 31.84375 L 1.28125 31.9375 L 1.34375 32.03125 C 1.34375 32.03125 4.53125 39.472656 11.8125 40.25 L 12.03125 40.28125 L 12.21875 40.21875 C 12.875 40.003906 13.519531 39.726563 14.0625 39.3125 C 13.835938 39.945313 13.75 40.625 13.75 41.3125 L 13.75 41.53125 L 13.84375 41.71875 C 16.835938 48.402344 24.90625 49.15625 24.90625 49.15625 L 25.09375 49.15625 C 25.09375 49.15625 33.167969 48.402344 36.15625 41.71875 L 36.25 41.53125 L 36.25 41.3125 C 36.25 40.621094 36.164063 39.945313 35.9375 39.3125 C 36.480469 39.726563 37.125 40.003906 37.78125 40.21875 L 37.96875 40.28125 L 38.1875 40.25 C 45.46875 39.472656 48.65625 32.03125 48.65625 32.03125 L 48.71875 31.9375 L 48.71875 31.84375 C 48.71875 31.84375 50.527344 23.941406 45.09375 19.03125 L 44.9375 18.875 L 44.71875 18.8125 C 44.054688 18.597656 43.378906 18.472656 42.6875 18.5 C 43.277344 18.105469 43.738281 17.605469 44.15625 17.03125 L 44.28125 16.84375 L 44.3125 16.65625 C 45.824219 9.488281 39.71875 4.125 39.71875 4.125 L 39.65625 4.0625 L 39.5625 4.03125 C 39.5625 4.03125 35.636719 1.691406 31 2.0625 C 29.453125 2.1875 27.835938 2.617188 26.25 3.53125 L 26.0625 3.625 L 25.9375 3.8125 C 25.53125 4.371094 25.195313 4.9375 25 5.59375 C 24.804688 4.9375 24.46875 4.371094 24.0625 3.8125 L 23.9375 3.625 L 23.75 3.53125 C 22.164063 2.617188 20.546875 2.1875 19 2.0625 C 18.421875 2.015625 17.863281 2.003906 17.3125 2.03125 Z M 17.75 4.0625 C 19.28125 4.03125 20.9375 4.300781 22.53125 5.15625 C 22.839844 5.609375 23.085938 6.011719 23.15625 6.34375 C 23.230469 6.6875 23.160156 7.085938 22.96875 7.625 C 22.957031 7.632813 22.949219 7.648438 22.9375 7.65625 C 21.039063 8.230469 18.269531 9.582031 16.90625 12.625 L 16.8125 12.8125 L 16.8125 13.03125 C 16.8125 13.355469 16.914063 13.675781 16.96875 14 C 16.6875 13.851563 16.421875 13.628906 16.125 13.53125 L 15.9375 13.46875 L 15.71875 13.46875 C 12.726563 13.789063 10.734375 15.628906 9.53125 17.1875 C 9.085938 17.175781 8.792969 17.089844 8.53125 16.9375 C 8.25 16.773438 7.945313 16.4375 7.625 16.03125 C 6.554688 10.324219 11.390625 5.847656 11.53125 5.71875 C 11.632813 5.660156 14.382813 4.128906 17.75 4.0625 Z M 31.3125 4.0625 C 35.089844 3.816406 38.359375 5.65625 38.46875 5.71875 C 38.609375 5.847656 43.421875 10.339844 42.375 16.03125 C 42.054688 16.4375 41.75 16.773438 41.46875 16.9375 C 41.203125 17.089844 40.914063 17.175781 40.46875 17.1875 C 39.265625 15.628906 37.273438 13.789063 34.28125 13.46875 L 34.0625 13.46875 L 33.875 13.53125 C 33.578125 13.628906 33.316406 13.851563 33.03125 14 C 33.085938 13.675781 33.1875 13.355469 33.1875 13.03125 L 33.1875 12.8125 L 33.09375 12.625 C 31.734375 9.578125 28.960938 8.230469 27.0625 7.65625 C 27.050781 7.648438 27.042969 7.632813 27.03125 7.625 C 26.839844 7.085938 26.769531 6.6875 26.84375 6.34375 C 26.914063 6.011719 27.160156 5.609375 27.46875 5.15625 C 28.742188 4.46875 30.054688 4.144531 31.3125 4.0625 Z M 25 9.25 C 25.050781 9.257813 25.511719 9.320313 26.15625 9.5 C 26.167969 9.503906 26.175781 9.527344 26.1875 9.53125 C 26.320313 9.605469 26.472656 9.648438 26.625 9.65625 C 28.070313 10.140625 30.117188 11.164063 31.15625 13.28125 C 31.136719 13.558594 31.125 13.828125 31.0625 13.96875 C 30.976563 14.164063 30.855469 14.351563 30.46875 14.59375 C 29.039063 14.785156 27.90625 15.53125 27.53125 16.59375 C 27.105469 17.800781 27.433594 19.152344 28.4375 20 C 29.488281 20.890625 30.957031 20.765625 32.03125 20.03125 C 32.984375 19.378906 33.472656 18.0625 33.21875 16.59375 L 33.25 16.59375 C 33.363281 16.148438 33.46875 15.984375 33.625 15.84375 C 33.742188 15.738281 34.011719 15.636719 34.28125 15.53125 C 37.800781 16.054688 39.617188 19.394531 39.90625 19.96875 C 39.847656 20.238281 39.90625 20.523438 40.0625 20.75 C 40.195313 21.949219 40.320313 25.070313 38.0625 27.25 C 37.792969 27.320313 37.53125 27.390625 37.375 27.375 C 37.183594 27.355469 36.988281 27.265625 36.6875 27.03125 C 36.117188 25.695313 35.191406 24.753906 34.0625 24.53125 C 32.804688 24.285156 31.445313 24.941406 30.8125 26.15625 C 30.074219 27.574219 30.617188 29.214844 31.71875 30.09375 C 32.699219 30.878906 34.203125 30.933594 35.5625 30.21875 L 35.5625 30.25 C 36.019531 30.21875 36.222656 30.300781 36.40625 30.40625 C 36.539063 30.484375 36.703125 30.699219 36.875 30.90625 C 37.273438 33.269531 36.175781 35.328125 35.28125 36.5625 C 34.988281 36.699219 34.78125 36.964844 34.71875 37.28125 C 34.71875 37.292969 34.71875 37.300781 34.71875 37.3125 C 34.546875 37.507813 34.441406 37.59375 34.375 37.65625 C 34.089844 37.683594 33.824219 37.828125 33.65625 38.0625 C 32.484375 38.582031 29.601563 39.578125 26.90625 38.15625 C 26.757813 37.921875 26.625 37.683594 26.59375 37.53125 C 26.550781 37.332031 26.566406 37.113281 26.71875 36.71875 C 26.722656 36.703125 26.710938 36.703125 26.71875 36.6875 C 27.785156 35.699219 28.335938 34.429688 28.0625 33.28125 C 27.753906 31.976563 26.511719 31 25 31 C 23.488281 31 22.246094 31.976563 21.9375 33.28125 C 21.664063 34.433594 22.214844 35.699219 23.28125 36.6875 C 23.289063 36.691406 23.273438 36.714844 23.28125 36.71875 C 23.433594 37.113281 23.449219 37.332031 23.40625 37.53125 C 23.375 37.683594 23.242188 37.921875 23.09375 38.15625 C 20.042969 39.765625 16.777344 38.285156 16.03125 37.90625 C 15.992188 37.882813 15.949219 37.863281 15.90625 37.84375 C 15.894531 37.835938 15.851563 37.816406 15.84375 37.8125 C 15.8125 37.800781 15.78125 37.789063 15.75 37.78125 C 15.730469 37.761719 15.53125 37.5625 15.28125 37.28125 C 15.21875 36.984375 15.023438 36.730469 14.75 36.59375 C 14.738281 36.582031 14.730469 36.574219 14.71875 36.5625 C 13.816406 35.332031 12.710938 33.277344 13.125 30.90625 C 13.296875 30.699219 13.460938 30.484375 13.59375 30.40625 C 13.777344 30.300781 13.980469 30.21875 14.4375 30.25 C 15.757813 30.953125 17.191406 30.910156 18.15625 30.21875 C 19.242188 29.4375 19.839844 28.027344 19.3125 26.6875 C 18.808594 25.410156 17.523438 24.671875 16.21875 24.75 C 15.070313 24.816406 14.003906 25.683594 13.375 27 C 13.023438 27.292969 12.835938 27.351563 12.625 27.375 C 12.46875 27.390625 12.207031 27.320313 11.9375 27.25 C 9.679688 25.070313 9.800781 21.949219 9.9375 20.75 C 10.105469 20.527344 10.175781 20.242188 10.125 19.96875 C 10.125 19.957031 10.125 19.949219 10.125 19.9375 C 10.453125 19.292969 12.25 16.046875 15.71875 15.53125 C 15.988281 15.636719 16.257813 15.738281 16.375 15.84375 C 16.53125 15.984375 16.636719 16.148438 16.75 16.59375 L 16.78125 16.59375 C 16.523438 18.058594 16.980469 19.398438 17.9375 20.0625 C 19.015625 20.808594 20.527344 20.882813 21.59375 19.96875 C 22.550781 19.148438 22.804688 17.820313 22.40625 16.625 C 22.058594 15.570313 20.964844 14.796875 19.53125 14.59375 C 19.144531 14.351563 19.023438 14.164063 18.9375 13.96875 C 18.875 13.828125 18.863281 13.558594 18.84375 13.28125 C 19.871094 11.191406 21.871094 10.148438 23.3125 9.65625 C 23.339844 9.648438 23.382813 9.664063 23.40625 9.65625 C 23.539063 9.640625 23.664063 9.597656 23.78125 9.53125 C 24.460938 9.335938 24.945313 9.257813 25 9.25 Z M 18.78125 16.4375 L 19 16.4375 C 20.097656 16.4375 20.382813 16.808594 20.53125 17.25 C 20.679688 17.691406 20.480469 18.265625 20.28125 18.4375 C 20.011719 18.667969 19.472656 18.691406 19.0625 18.40625 C 18.652344 18.121094 18.355469 17.675781 18.6875 16.65625 Z M 31 16.4375 L 31.21875 16.4375 L 31.3125 16.65625 C 31.640625 17.667969 31.335938 18.082031 30.90625 18.375 C 30.476563 18.667969 29.921875 18.613281 29.75 18.46875 C 29.414063 18.183594 29.257813 17.667969 29.40625 17.25 C 29.554688 16.832031 29.890625 16.4375 31 16.4375 Z M 7.34375 20.4375 C 7.527344 20.445313 7.71875 20.488281 7.90625 20.5625 C 7.910156 20.5625 7.902344 20.59375 7.90625 20.59375 C 7.71875 22.378906 7.730469 26.234375 10.6875 28.90625 L 10.875 29.03125 L 11.0625 29.125 C 11.34375 29.214844 11.671875 29.203125 11.96875 29.25 C 11.75 29.46875 11.492188 29.660156 11.3125 29.90625 L 11.1875 30.09375 L 11.15625 30.28125 C 10.496094 33.40625 11.804688 36.015625 12.96875 37.625 C 12.679688 37.859375 12.296875 38.039063 11.78125 38.21875 C 6.070313 37.433594 3.296875 31.488281 3.21875 31.3125 C 3.1875 31.15625 1.910156 24.6875 6.09375 20.6875 C 6.597656 20.53125 6.988281 20.421875 7.34375 20.4375 Z M 42.65625 20.4375 C 43.011719 20.421875 43.402344 20.53125 43.90625 20.6875 C 48.089844 24.691406 46.8125 31.15625 46.78125 31.3125 C 46.703125 31.488281 43.929688 37.433594 38.21875 38.21875 C 37.691406 38.035156 37.320313 37.867188 37.03125 37.625 C 38.195313 36.015625 39.503906 33.40625 38.84375 30.28125 L 38.8125 30.09375 L 38.6875 29.90625 C 38.507813 29.660156 38.25 29.46875 38.03125 29.25 C 38.332031 29.203125 38.65625 29.21875 38.9375 29.125 L 39.125 29.03125 L 39.3125 28.90625 C 42.265625 26.234375 42.28125 22.378906 42.09375 20.59375 C 42.09375 20.585938 42.09375 20.570313 42.09375 20.5625 C 42.28125 20.488281 42.472656 20.445313 42.65625 20.4375 Z M 25 21 C 22.800781 21 21 22.800781 21 25 C 21 27.199219 22.800781 29 25 29 C 27.199219 29 29 27.199219 29 25 C 29 22.800781 27.199219 21 25 21 Z M 25 23 C 26.117188 23 27 23.882813 27 25 C 27 26.117188 26.117188 27 25 27 C 23.882813 27 23 26.117188 23 25 C 23 23.882813 23.882813 23 25 23 Z M 33.34375 26.46875 C 33.441406 26.457031 33.550781 26.480469 33.65625 26.5 C 34.082031 26.582031 34.675781 26.964844 35.03125 28.0625 L 35.09375 28.28125 L 34.90625 28.4375 C 34.074219 29.042969 33.433594 28.902344 32.96875 28.53125 C 32.503906 28.160156 32.320313 27.621094 32.59375 27.09375 C 32.800781 26.695313 33.050781 26.5 33.34375 26.46875 Z M 16.34375 26.75 C 16.835938 26.722656 17.300781 26.980469 17.46875 27.40625 C 17.613281 27.769531 17.414063 28.273438 16.96875 28.59375 C 16.523438 28.914063 15.953125 29.0625 15.09375 28.4375 L 14.90625 28.28125 L 14.96875 28.0625 C 15.308594 27.015625 15.851563 26.777344 16.34375 26.75 Z M 25 33 C 25.722656 33 26.023438 33.320313 26.125 33.75 C 26.226563 34.179688 26.089844 34.84375 25.1875 35.5 L 25 35.625 L 24.8125 35.5 C 23.910156 34.84375 23.773438 34.179688 23.875 33.75 C 23.976563 33.320313 24.277344 33 25 33 Z M 25 38.6875 C 25.140625 38.96875 25.226563 39.28125 25.40625 39.53125 L 25.53125 39.71875 L 25.71875 39.8125 C 28.9375 41.664063 32.3125 40.777344 34.09375 40.0625 C 34.171875 40.355469 34.207031 40.699219 34.21875 41.125 C 31.707031 46.328125 25.167969 47.105469 25 47.125 C 24.832031 47.105469 18.296875 46.328125 15.78125 41.125 C 15.792969 40.699219 15.828125 40.355469 15.90625 40.0625 C 17.6875 40.777344 21.0625 41.664063 24.28125 39.8125 L 24.46875 39.71875 L 24.59375 39.53125 C 24.773438 39.28125 24.859375 38.96875 25 38.6875 Z"/></svg>